<svg xmlns="http://www.w3.org/2000/svg" x="0px" y="0px"
width="24" height="24"
viewBox="0 0 172 172"
style=" fill:#000000;"><g transform="translate(2.924,2.924) scale(0.966,0.966)"><g fill="none" fill-rule="nonzero" stroke="none" stroke-width="none" stroke-linecap="butt" stroke-linejoin="none" stroke-miterlimit="10" stroke-dasharray="" stroke-dashoffset="0" font-family="none" font-weight="none" font-size="none" text-anchor="none" style="mix-blend-mode: normal"><g id="original-icon 1" fill="#f60505" stroke="#731010" stroke-width="6" stroke-linejoin="round"><path d="M142.07357,61.8125l21.73795,21.73795c1.3545,1.3545 1.3545,3.54459 0,4.89909l-21.73795,21.73795c-2.17867,2.18583 -5.9069,0.63929 -5.9069,-2.44955v-14.57129h-121.83333c-2.58456,0.03655 -4.98858,-1.32136 -6.29153,-3.55376c-1.30295,-2.2324 -1.30295,-4.99342 0,-7.22582c1.30295,-2.2324 3.70697,-3.59031 6.29153,-3.55376h121.83333v-14.57129c0,-2.31663 2.10398,-3.75634 4.07324,-3.41536c0.65642,0.11366 1.289,0.42115 1.83366,0.96582z"></path></g><path d="M0,172v-172h172v172z" fill="none" stroke="none" stroke-width="1" stroke-linejoin="miter"></path><g id="original-icon" fill="#f30000" stroke="none" stroke-width="1" stroke-linejoin="miter"><path d="M140.23991,60.84668c-1.96926,-0.34098 -4.07324,1.09874 -4.07324,3.41536v14.57129h-121.83333c-2.58456,-0.03655 -4.98858,1.32136 -6.29153,3.55376c-1.30295,2.2324 -1.30295,4.99342 0,7.22582c1.30295,2.2324 3.70697,3.59031 6.29153,3.55376h121.83333v14.57129c0,3.08883 3.72824,4.63538 5.9069,2.44955l21.73795,-21.73795c1.3545,-1.3545 1.3545,-3.54459 0,-4.89909l-21.73795,-21.73795c-0.54467,-0.54467 -1.17724,-0.85216 -1.83366,-0.96582z"></path></g><path d="" fill="none" stroke="none" stroke-width="1" stroke-linejoin="miter"></path><path d="" fill="none" stroke="none" stroke-width="1" stroke-linejoin="miter"></path><path d="" fill="none" stroke="none" stroke-width="1" stroke-linejoin="miter"></path></g></g></svg>